<?xml version="1.0" encoding="UTF-8"?><svg id="Layer_1" xmlns="http://www.w3.org/2000/svg" xmlns:xlink="http://www.w3.org/1999/xlink" viewBox="0 0 720 720"><defs><style>.cls-1{fill:url(#linear-gradient-2);}.cls-2{fill:url(#linear-gradient-3);fill-rule:evenodd;}.cls-3{fill:#f37423;}.cls-4{fill:#e44234;}.cls-5{fill:url(#linear-gradient);}.cls-6{fill:#192347;}</style><linearGradient id="linear-gradient" x1="393.25" y1="602.93" x2="686.1" y2="602.93" gradientUnits="userSpaceOnUse"><stop offset="0" stop-color="#c8213d"/><stop offset=".15" stop-color="#cc273c"/><stop offset=".35" stop-color="#d93a3b"/><stop offset=".6" stop-color="#ef5839"/><stop offset=".61" stop-color="#f05a39"/><stop offset="1" stop-color="#fac013"/></linearGradient><linearGradient id="linear-gradient-2" x1="85.83" y1="12.71" x2="377.79" y2="343.49" gradientUnits="userSpaceOnUse"><stop offset="0" stop-color="#192347"/><stop offset=".38" stop-color="#1d284d"/><stop offset=".93" stop-color="#2a3560"/><stop offset=".99" stop-color="#2c3863"/></linearGradient><linearGradient id="linear-gradient-3" x1="264.84" y1="128.69" x2="702.79" y2="128.69" xlink:href="#linear-gradient"/></defs><path class="cls-6" d="M91.93,569.68l-23.53,66.51h-10.77l-23.73-66.51h7.98l17.75,50.26c.7,2.19,1.5,4.39,2.19,6.68.5,1.2.6,1.5,1.2,3.59h.1c1.1-3.69,1.79-5.78,3.29-10.17l17.45-50.36h8.08Z"/><path class="cls-6" d="M106.78,598.7h33.7v6.28h-33.7v24.73h35.2v6.48h-42.68v-66.51h42.68v6.48h-35.2v22.54Z"/><path class="cls-6" d="M203.31,613.95c0,11.87-.4,14.26-3.19,17.75-2.69,3.39-7.28,4.79-15.85,5.09-2.49.1-6.48.1-9.97.1-9.37,0-13.16-.8-17.35-3.59-3.09-2.09-5.48-6.48-6.18-11.27-.6-3.99-1.1-12.17-1.1-19.05,0-14.56,0-16.05.7-19.74,1.1-6.78,6.18-11.87,13.46-13.26,3.69-.7,8.08-1,17.05-1,8.38,0,11.47.5,14.86,2.39,3.49,1.89,5.78,5.78,6.28,10.57.2,2.09.3,3.39.5,8.08h-7.48c-.1-7.08-.4-9.07-1.6-11.17-1.7-2.69-4.59-3.49-12.76-3.49-9.27,0-15.26.5-17.65,1.5-4.19,1.89-5.48,5.48-5.48,15.76,0,37.49.1,37.79,18.45,37.79s19.94-1.3,19.94-12.66v-3.79h7.38Z"/><path class="cls-6" d="M237.21,636.19h-7.48v-59.53h-21.64v-6.98h50.66v7.08l-21.54-.1v59.53Z"/><path class="cls-6" d="M310.39,571.17c5.68,2.39,8.68,7.28,9.87,15.86.3,2.99.4,4.59.4,13.06,0,15.56-.1,17.85-1.2,22.93-1.2,5.88-4.09,9.67-8.87,11.67-4.19,1.8-7.58,2.19-17.35,2.19-11.67,0-14.86-.4-19.15-2.19-4.79-2.09-7.58-5.78-8.87-11.67-1.1-5.19-1.2-7.38-1.2-22.83,0-13.86.6-17.75,3.29-22.84,2.19-3.99,6.08-6.58,11.67-7.68,2.39-.4,7.58-.7,13.36-.7,10.17,0,14.16.5,18.05,2.19ZM274.9,578.65c-1.99,2.29-2.89,5.28-3.29,10.87q-.1,1.4-.1,13.36,0,13.76.6,17.55c.7,4.59,2.49,7.38,5.58,8.58,2.69,1.1,5.48,1.4,14.36,1.4,12.17,0,15.46-.6,17.75-3.19,1.99-2.29,2.89-5.29,3.29-10.87q.1-1.4.1-13.46,0-13.66-.6-17.45c-.7-4.59-2.49-7.38-5.58-8.58-2.69-1.1-5.58-1.4-14.36-1.4-12.17,0-15.46.6-17.75,3.19Z"/><path class="cls-6" d="M331.53,569.68h31.61c14.26,0,19.44,5.09,19.44,19.15,0,12.07-2.59,16.05-11.47,17.55v.1c6.88.4,10.67,4.99,10.57,12.86v16.85h-7.48v-15.16c.2-8.48-3.59-11.87-12.56-11.57h-22.64v26.72h-7.48v-66.51ZM360.65,602.98c10.97,0,14.46-2.89,14.46-11.87,0-6.88-.4-9.77-1.79-11.67-1.5-2.19-4.79-3.29-10.07-3.29h-24.23v26.82h21.64Z"/><path class="cls-5" d="M393.25,569.68h43.97v10.57h-31.21v18.05h29.62v10.57h-29.62v27.32h-12.76v-66.51ZM501.44,586.53c.5,2.99.7,6.88.7,15.76,0,15.95-.6,20.34-3.39,25.33-2.39,4.19-6.78,7.08-12.76,8.28-2.69.6-7.98.9-14.46.9-9.87,0-14.86-.8-18.95-2.99-5.28-2.89-7.98-7.18-9.17-14.56-.5-3.09-.6-6.28-.6-14.56,0-17.15.7-22.04,3.79-26.92,2.49-3.89,6.88-6.68,12.36-7.78,2.59-.6,8.08-.9,14.06-.9,9.47,0,13.86.6,17.75,2.19,5.98,2.69,9.37,7.48,10.67,15.26ZM489.17,602.48c0-10.47,0-10.77-.5-13.86-.6-3.89-2.19-6.38-4.69-7.48-2.19-.9-4.69-1.1-12.17-1.1-8.08,0-10.77.5-12.86,2.59-2.19,2.09-3.09,5.58-3.19,12.16v10.87c0,11.67.5,14.66,2.89,17.45,1.89,2.19,4.89,2.69,15.06,2.69s12.46-1.1,14.16-5.88c1.2-3.29,1.3-4.99,1.3-17.45ZM553.89,608.27v.5c7.58.4,11.37,4.89,11.27,12.96v14.46h-12.86v-11.97c.2-7.28-2.89-10.37-9.97-10.17h-17.95v22.14h-12.76v-66.51h32.71c16.05,0,21.54,4.99,21.54,19.84,0,13.26-2.29,16.85-11.97,18.75ZM552.89,591.82c0-9.37-1.6-11.17-9.77-11.17h-18.75v22.54h17.85c3.99,0,6.58-.6,8.08-1.99,2.09-1.69,2.59-3.69,2.59-9.37ZM601.95,600.89v9.47h16.65c.1,1.2.2,2.39.2,2.69,0,5.38-.9,8.97-2.59,10.67s-5.38,2.39-12.66,2.39c-10.37,0-14.06-1.1-15.76-4.79-1.2-2.59-1.5-6.28-1.5-18.85s.3-15.16,1.6-17.95c1.8-3.69,5.19-4.79,14.76-4.79,13.76,0,15.36,1,15.76,9.87h12.86c-.2-9.97-1.89-14.66-6.38-17.35-4.49-2.69-7.88-3.19-21.54-3.19-8.38,0-12.76.3-15.86,1.2-6.58,1.89-10.87,6.18-12.66,12.86-1.3,4.89-1.5,8.78-1.5,26.23,0,15.36,2.89,21.74,11.47,25.33,3.89,1.6,7.98,2.09,17.05,2.09,15.76,0,21.04-1.1,25.03-5.29,3.59-3.69,4.59-7.78,4.59-19.15,0-5.68,0-8.08-.2-11.47h-29.32ZM653.1,625.62v-18.75h31.01v-9.37h-31.01v-17.25h32.71v-10.57h-45.47v66.51h45.77v-10.57h-33.01Z"/><path class="cls-1" d="M15.73,80.05c3.91-.25,6.34-.53,8.76-.53,31.57-.03,63.14.16,94.71-.18,6.29-.07,9.51,2.12,12.52,7.47,33.42,59.32,66.97,118.56,100.76,177.67,18.58,32.51,37.67,64.74,57.29,98.38,2.57-3.83,4.78-6.74,6.59-9.87,18.27-31.61,36.46-63.28,54.72-94.9,3.26-5.65,7.14-10,14.71-9.98,66.9.18,133.8.15,200.69.2,1.17,0,2.34.34,4.6.69-7.9,14.28-15.4,27.96-23.02,41.57-9.07,16.2-18.45,32.23-27.28,48.56-2.78,5.14-6.13,6.98-11.93,6.89-25.25-.4-50.51-.01-75.76-.6-13.43-.31-22.37,4.6-29.15,16.54-35.53,62.48-71.6,124.66-107.49,186.93-1.56,2.71-3.21,5.38-5.66,9.49C198.9,398.6,107.59,239.81,15.73,80.05Z"/><path class="cls-3" d="M266.33,80.33h416.96c-5.42,9.66,14.82,17.37,9.89,26.06-11.83,20.86-13.31,42.66-24.89,63.66-2.79,5.06-5.95,7.01-11.86,7-109.29-.16-218.58-.06-327.88-.29-3.41,0-8.39-2.01-9.96-4.65-17.41-29.31-34.3-58.92-51.29-88.47-.43-.75-.51-1.7-.97-3.31Z"/><circle class="cls-4" cx="638.83" cy="128.69" r="65.45"/><path class="cls-2" d="M681.69,80.56c.04-.08.07-.16.11-.23h-.37c-11.63-10.61-27.11-17.09-44.1-17.09s-32.46,6.47-44.1,17.09h-328.4c.46,1.6.54,2.55.97,3.31,17,29.55,33.88,59.16,51.29,88.47,1.57,2.64,6.56,4.65,9.96,4.65,88.7.18,177.4.16,266.11.23,11.64,10.65,27.14,17.15,44.16,17.15,36.15,0,65.45-29.3,65.45-65.45,0-19.03-8.13-36.17-21.1-48.13Z"/></svg>